<svg width="182" height="182" xmlns="http://www.w3.org/2000/svg" fill="none">
 <defs>
  <clipPath id="clip0_59_0">
   <rect width="182" height="182" fill="white" id="svg_1"/>
  </clipPath>
 </defs>
 <g>
  <title>Layer 1</title>
  <g clip-path="url(#clip0_59_0)" id="svg_2">
   <path d="m74.3169,41.9465c2.9447,0 5.332,-2.3873 5.332,-5.3319c0,-3.4779 0.7191,-4.4543 2.1523,-6.4005c4.0047,-5.4382 6.4499,-9.9832 6.4499,-17.0445c0,-3.97902 -1.2676,-7.41208 -2.372,-9.95791c-1.172,-2.70152 -4.3128,-3.94244 -7.0133,-2.76941c-2.7015,1.17196 -3.9414,4.31177 -2.7698,7.01329c0.6943,1.60029 1.4912,3.69613 1.4912,5.71373c0,4.4571 -1.6383,7.0062 -4.3729,10.7211c-1.8843,2.559 -4.2289,5.7432 -4.2289,12.7238c-0.0004,2.945 2.3869,5.3323 5.3315,5.3323l0,0z" fill="#ffffff" id="svg_3" stroke="#000"/>
   <path d="m99.0807,41.9464c2.9443,0 5.3323,-2.3872 5.3323,-5.3319c0,-3.4775 0.719,-4.4543 2.152,-6.4005c4.011,-5.4471 6.45,-9.9974 6.45,-17.0444c0,-3.97873 -1.268,-7.41144 -2.372,-9.95762c-1.171,-2.70188 -4.312,-3.94173 -7.013,-2.77013c-2.702,1.17197 -3.9414,4.31177 -2.77,7.01329c0.694,1.60065 1.491,3.69646 1.491,5.71406c0,4.4536 -1.634,7.0001 -4.3725,10.7215c-1.8844,2.5586 -4.229,5.7429 -4.229,12.7234c-0.0007,2.9451 2.3866,5.3323 5.3312,5.3323l0,0z" fill="#ffffff" id="svg_4" stroke="#000"/>
   <path d="m123.088,148.606l-5.353,-18.864c-3.273,1.449 -6.645,2.627 -10.084,3.529l5.18,18.254c-4.38,3.015 -7.258,8.06 -7.258,13.767c0,9.212 7.495,16.707 16.707,16.707c9.212,0 16.707,-7.495 16.707,-16.707c0,-8.941 -7.061,-16.263 -15.899,-16.686l0,0z" fill="#ffffff" id="svg_5" stroke="#000"/>
   <path d="m90.9997,124.769c20.6783,0 38.9133,-11.514 49.5053,-28.9194l-99.0113,0c10.5928,17.4054 28.8277,28.9194 49.506,28.9194l0,0z" fill="#ffffff" id="svg_6" stroke="#000"/>
   <path d="m159.249,51.5439l-136.4981,0c-2.9447,0 -5.332,2.3873 -5.332,5.332c0,2.9447 2.3873,5.3319 5.332,5.3319l9.0529,0c0.1646,8.1185 1.7358,15.869 4.4593,22.9779l109.4739,0c2.723,-7.1089 4.294,-14.8594 4.459,-22.9779l9.053,0c2.944,0 5.332,-2.3872 5.332,-5.3319c0,-2.9447 -2.388,-5.332 -5.332,-5.332z" fill="#ffffff" id="svg_7" stroke="#000"/>
   <path d="m54.5326,175.429c-0.7984,3.345 1.7378,6.571 5.1908,6.571c2.4111,0 4.5976,-1.647 5.1819,-4.096l10.5829,-44.338c-3.4622,-0.842 -6.8597,-1.967 -10.1613,-3.36l-10.7943,45.223z" fill="#ffffff" id="svg_8" stroke="#000"/>
   <path d="m85.668,135.206l0,41.461c0,2.945 2.3873,5.332 5.3319,5.332c2.9447,0 5.332,-2.387 5.332,-5.332l0,-41.461c-3.6912,0.302 -6.9653,0.303 -10.6639,0l0,0z" fill="#ffffff" id="svg_9" stroke="#000"/>
  </g>
 </g>
</svg>